<?xml version="1.0" encoding="UTF-8" standalone="no"?>
<svg
   viewBox="0 0 22 22"
   version="1.1"
   id="svg1"
   width="22"
   height="22"
   xmlns="http://www.w3.org/2000/svg"
   xmlns:svg="http://www.w3.org/2000/svg">
  <defs
     id="defs1" />
  <path
     d="M 8,3 10.5,8.5 16,11 10.5,13.5 8,19 5.5,13.5 0,11 5.5,8.5 8,3 M 8,7.83 7,10 4.83,11 7,12 8,14.17 9,12 11.17,11 9,10 8,7.83 M 18,8 16.74,5.26 14,4 16.74,2.75 18,0 19.25,2.75 22,4 19.25,5.26 18,8 M 18,22 16.74,19.26 14,18 16.74,16.75 18,14 19.25,16.75 22,18 19.25,19.26 Z"
     id="path1"
     style="fill:#ebdbb2;fill-opacity:1" />
</svg>
