<?xml version="1.0" encoding="UTF-8" standalone="no"?>
<svg
   viewBox="0 0 18 19.978571"
   version="1.1"
   id="svg1"
   width="18"
   height="19.978571"
   xmlns="http://www.w3.org/2000/svg"
   xmlns:svg="http://www.w3.org/2000/svg">
  <defs
     id="defs1" />
  <path
     d="M 16,1.9785703 H 11.82 C 11.25,0.41857027 9.53,-0.38142973 8,0.17857027 7.14,0.47857027 6.5,1.1385703 6.18,1.9785703 H 2 a 2,2 0 0 0 -2,2 V 17.97857 a 2,2 0 0 0 2,2 h 14 a 2,2 0 0 0 2,-2 V 3.9785703 a 2,2 0 0 0 -2,-2 m -7,0 a 1,1 0 0 1 1,1 1,1 0 0 1 -1,1 1,1 0 0 1 -1,-1 1,1 0 0 1 1,-1 m -5,4 h 10 v -2 h 2 V 17.97857 H 2 V 3.9785703 h 2 v 2 m 10,4 H 4 v -2 h 10 v 2 M 12,13.97857 H 4 v -2 h 8 z"
     id="path1"
     style="fill:#bdae93;fill-opacity:1" />
</svg>
