<?xml version="1.0" encoding="UTF-8" standalone="no"?>
<svg
   viewBox="0 0 18 20"
   version="1.1"
   id="svg1"
   width="18"
   height="20"
   xmlns="http://www.w3.org/2000/svg"
   xmlns:svg="http://www.w3.org/2000/svg">
  <defs
     id="defs1" />
  <path
     d="m 16,2 a 2,2 0 0 1 2,2 v 14 a 2,2 0 0 1 -2,2 H 2 A 2,2 0 0 1 0,18 V 4 A 2,2 0 0 1 2,2 H 6.18 C 6.6,0.84 7.7,0 9,0 c 1.3,0 2.4,0.84 2.82,2 H 16 M 9,2 A 1,1 0 0 0 8,3 1,1 0 0 0 9,4 1,1 0 0 0 10,3 1,1 0 0 0 9,2 M 4,6 V 4 H 2 V 18 H 16 V 4 H 14 V 6 H 4 m 4,2 h 2 v 4.5 H 8 V 8 m 0,6 h 2 v 2 H 8 Z"
     id="path1"
     style="fill:#ebdbb2;fill-opacity:1" />
</svg>
