<?xml version="1.0" encoding="UTF-8" standalone="no"?>
<svg
   viewBox="0 0 20 13.5"
   version="1.1"
   id="svg1"
   width="20"
   height="13.5"
   xmlns="http://www.w3.org/2000/svg"
   xmlns:svg="http://www.w3.org/2000/svg">
  <defs
     id="defs1" />
  <path
     d="M 5.97,10 3,13 C 2.67,13.3 2.23,13.5 1.75,13.5 A 1.75,1.75 0 0 1 0,11.75 V 11.5 L 1,4.12 C 1.21,1.81 3.14,0 5.5,0 h 9 c 2.36,0 4.29,1.81 4.5,4.12 l 1,7.38 v 0.25 A 1.75,1.75 0 0 1 18.25,13.5 C 17.77,13.5 17.33,13.3 17,13 L 14.03,10 H 5.97 M 5,2 V 4 H 3 V 5 H 5 V 7 H 6 V 5 H 8 V 4 H 6 V 2 H 5 m 9.5,0 A 0.75,0.75 0 0 0 13.75,2.75 0.75,0.75 0 0 0 14.5,3.5 0.75,0.75 0 0 0 15.25,2.75 0.75,0.75 0 0 0 14.5,2 M 12.75,3.75 A 0.75,0.75 0 0 0 12,4.5 0.75,0.75 0 0 0 12.75,5.25 0.75,0.75 0 0 0 13.5,4.5 0.75,0.75 0 0 0 12.75,3.75 m 3.5,0 A 0.75,0.75 0 0 0 15.5,4.5 0.75,0.75 0 0 0 16.25,5.25 0.75,0.75 0 0 0 17,4.5 0.75,0.75 0 0 0 16.25,3.75 M 14.5,5.5 A 0.75,0.75 0 0 0 13.75,6.25 0.75,0.75 0 0 0 14.5,7 0.75,0.75 0 0 0 15.25,6.25 0.75,0.75 0 0 0 14.5,5.5 Z"
     id="path1"
     style="fill:#ebdbb2;fill-opacity:1" />
</svg>
