<?xml version="1.0" encoding="UTF-8" standalone="no"?>
<svg
   viewBox="0 0 20 20"
   version="1.1"
   id="svg1"
   width="20"
   height="20"
   xmlns="http://www.w3.org/2000/svg"
   xmlns:svg="http://www.w3.org/2000/svg">
  <defs
     id="defs1" />
  <path
     d="M 2,4 H 0 v 14 a 2,2 0 0 0 2,2 H 16 V 18 H 2 M 16,5 h -3 v 5.5 A 2.5,2.5 0 0 1 10.5,13 2.5,2.5 0 0 1 8,10.5 2.5,2.5 0 0 1 10.5,8 c 0.57,0 1.08,0.19 1.5,0.5 V 3 h 4 M 18,0 H 6 A 2,2 0 0 0 4,2 v 12 a 2,2 0 0 0 2,2 h 12 a 2,2 0 0 0 2,-2 V 2 A 2,2 0 0 0 18,0 Z"
     id="path1"
     style="fill:#bdae93;fill-opacity:1" />
</svg>
