<?xml version="1.0" encoding="UTF-8" standalone="no"?>
<svg
   viewBox="0 0 15.929545 19.36684"
   version="1.1"
   id="svg1"
   width="15.929545"
   height="19.36684"
   xmlns="http://www.w3.org/2000/svg"
   xmlns:svg="http://www.w3.org/2000/svg">
  <defs
     id="defs1" />
  <path
     d="m 8.0045455,3.4 c 2.0999995,0 4.0999995,0.8 5.5999995,2.3 3.1,3.1 3.1,8.2 0,11.3 -1.8,1.9 -4.2999995,2.6 -6.6999995,2.3 l 0.5,-2 c 1.7,0.2 3.4999995,-0.4 4.7999995,-1.7 2.3,-2.3 2.3,-6.1 0,-8.5 C 11.104545,6 9.5045455,5.4 8.0045455,5.4 V 10 l -5,-5 5,-5 v 3.4 m -5.7,13.6 c -2.60000005,-2.6 -3.00000005,-6.6 -1.2,-9.7 l 1.5,1.5 c -1.1,2.2 -0.7,5 1.2,6.8 0.5,0.5 1.1,0.9 1.8,1.2 l -0.6,2 c -1,-0.4 -1.9,-1 -2.7,-1.8 z"
     id="path1"
     style="fill:#bdae93;fill-opacity:1" />
</svg>
