<?xml version="1.0" encoding="UTF-8" standalone="no"?>
<svg
   viewBox="0 0 20 18"
   version="1.1"
   id="svg1"
   width="20"
   height="18"
   xmlns="http://www.w3.org/2000/svg"
   xmlns:svg="http://www.w3.org/2000/svg">
  <defs
     id="defs1" />
  <path
     d="M 18,16 V 4 H 2 V 16 H 18 M 18,0 a 2,2 0 0 1 2,2 v 14 a 2,2 0 0 1 -2,2 H 2 A 2,2 0 0 1 0,16 V 2 C 0,0.89 0.9,0 2,0 h 16 m -7,14 v -2 h 5 v 2 H 11 M 7.58,10 3.57,6 H 6.4 l 3.3,3.3 c 0.39,0.39 0.39,1.03 0,1.42 L 6.42,14 H 3.59 Z"
     id="path1"
     style="fill:#bdae93;fill-opacity:1" />
</svg>
