<?xml version="1.0" encoding="UTF-8" standalone="no"?>
<svg
   viewBox="0 0 20 14"
   version="1.1"
   id="svg1"
   width="20"
   height="14"
   xmlns="http://www.w3.org/2000/svg"
   xmlns:svg="http://www.w3.org/2000/svg">
  <defs
     id="defs1" />
  <path
     d="M 8,10 13.19,7 8,4 v 6 M 19.56,2.17 c 0.13,0.47 0.22,1.1 0.28,1.9 0.07,0.8 0.1,1.49 0.1,2.09 L 20,7 c 0,2.19 -0.16,3.8 -0.44,4.83 -0.25,0.9 -0.83,1.48 -1.73,1.73 -0.47,0.13 -1.33,0.22 -2.65,0.28 -1.3,0.07 -2.49,0.1 -3.59,0.1 L 10,14 C 5.81,14 3.2,13.84 2.17,13.56 1.27,13.31 0.69,12.73 0.44,11.83 0.31,11.36 0.22,10.73 0.16,9.93 0.09,9.13 0.06,8.44 0.06,7.84 L 0,7 C 0,4.81 0.16,3.2 0.44,2.17 0.69,1.27 1.27,0.69 2.17,0.44 2.64,0.31 3.5,0.22 4.82,0.16 6.12,0.09 7.31,0.06 8.41,0.06 L 10,0 c 4.19,0 6.8,0.16 7.83,0.44 0.9,0.25 1.48,0.83 1.73,1.73 z"
     id="path1"
     style="fill:#bdae93;fill-opacity:1" />
</svg>
