<?xml version="1.0" encoding="UTF-8" standalone="no"?>
<svg
   viewBox="0 0 18 21"
   version="1.1"
   id="svg1"
   width="18"
   height="21"
   xmlns="http://www.w3.org/2000/svg"
   xmlns:svg="http://www.w3.org/2000/svg">
  <defs
     id="defs1" />
  <path
     d="m 18,17 v 1 H 0 V 17 L 2,15 V 9 C 2,5.9 4.03,3.17 7,2.29 7,2.19 7,2.1 7,2 a 2,2 0 0 1 2,-2 2,2 0 0 1 2,2 c 0,0.1 0,0.19 0,0.29 2.97,0.88 5,3.61 5,6.71 v 6 l 2,2 m -7,2 A 2,2 0 0 1 9,21 2,2 0 0 1 7,19"
     id="path1"
     style="fill:#ebdbb2;fill-opacity:1" />
</svg>
