<?xml version="1.0" encoding="UTF-8" standalone="no"?>
<svg
   viewBox="0 0 18 20"
   version="1.1"
   id="svg1"
   width="18"
   height="20"
   xmlns="http://www.w3.org/2000/svg"
   xmlns:svg="http://www.w3.org/2000/svg">
  <defs
     id="defs1" />
  <path
     d="m 4,10 h 2 v 2 H 4 V 10 M 18,4 v 14 c 0,1.11 -0.89,2 -2,2 H 2 C 0.89,20 0,19.1 0,18 V 4 C 0,2.9 0.9,2 2,2 H 3 V 0 h 2 v 2 h 8 V 0 h 2 v 2 h 1 c 1.11,0 2,0.9 2,2 M 2,6 H 16 V 4 H 2 V 6 M 16,18 V 8 H 2 v 10 h 14 m -4,-6 v -2 h 2 v 2 h -2 m -4,0 v -2 h 2 v 2 H 8 m -4,2 h 2 v 2 H 4 v -2 m 8,2 v -2 h 2 v 2 h -2 m -4,0 v -2 h 2 v 2 z"
     id="path1"
     style="fill:#ebdbb2;fill-opacity:1" />
</svg>
