<?xml version="1.0" encoding="UTF-8" standalone="no"?>
<svg
   viewBox="0 0 20 18"
   version="1.1"
   id="svg1"
   width="20"
   height="18"
   xmlns="http://www.w3.org/2000/svg"
   xmlns:svg="http://www.w3.org/2000/svg">
  <defs
     id="defs1" />
  <path
     d="M 0,1.27 1.28,0 18,16.72 16.73,18 l -6,-6 H 5.97 L 3,15 C 2.67,15.3 2.23,15.5 1.75,15.5 A 1.75,1.75 0 0 1 0,13.75 V 13.5 L 1,6.12 C 1.1,5.09 1.53,4.17 2.19,3.46 L 0,1.27 M 3,6 V 7 H 5 V 9 H 6 V 7.27 L 4.73,6 H 3 M 14.5,2 c 2.36,0 4.29,1.81 4.5,4.12 l 1,7.38 v 0.25 c 0,0.66 -0.36,1.25 -0.9,1.53 L 5.82,2 h 8.68 m 0,2 A 0.75,0.75 0 0 0 13.75,4.75 0.75,0.75 0 0 0 14.5,5.5 0.75,0.75 0 0 0 15.25,4.75 0.75,0.75 0 0 0 14.5,4 M 12.75,5.75 A 0.75,0.75 0 0 0 12,6.5 0.75,0.75 0 0 0 12.75,7.25 0.75,0.75 0 0 0 13.5,6.5 0.75,0.75 0 0 0 12.75,5.75 m 3.5,0 A 0.75,0.75 0 0 0 15.5,6.5 0.75,0.75 0 0 0 16.25,7.25 0.75,0.75 0 0 0 17,6.5 0.75,0.75 0 0 0 16.25,5.75 M 14.5,7.5 A 0.75,0.75 0 0 0 13.75,8.25 0.75,0.75 0 0 0 14.5,9 0.75,0.75 0 0 0 15.25,8.25 0.75,0.75 0 0 0 14.5,7.5 Z"
     id="path1"
     style="fill:#ebdbb2;fill-opacity:1" />
</svg>
