<?xml version="1.0" encoding="UTF-8" standalone="no"?>
<svg
   viewBox="0 0 19.458664 20"
   version="1.1"
   id="svg1"
   width="19.458664"
   height="20"
   xmlns="http://www.w3.org/2000/svg"
   xmlns:svg="http://www.w3.org/2000/svg">
  <defs
     id="defs1" />
  <path
     d="m 9.7293316,6 a 4,4 0 0 1 4.0000004,4 4,4 0 0 1 -4.0000004,4 4,4 0 0 1 -4,-4 4,4 0 0 1 4,-4 m 0,2 a 2,2 0 0 0 -2,2 2,2 0 0 0 2,2 2,2 0 0 0 2.0000004,-2 2,2 0 0 0 -2.0000004,-2 m -2,12 c -0.25,0 -0.46,-0.18 -0.5,-0.42 l -0.37,-2.65 c -0.63,-0.25 -1.17,-0.59 -1.69,-0.99 l -2.49,1.01 c -0.22,0.08 -0.49,0 -0.61,-0.22 l -2,-3.46 c -0.13,-0.22 -0.0699999961,-0.49 0.12,-0.64 l 2.11,-1.66 -0.07,-0.97 0.07,-1 -2.11,-1.63 c -0.18999999607,-0.15 -0.25,-0.42 -0.12,-0.64 l 2,-3.46 c 0.12,-0.22 0.39,-0.31 0.61,-0.22 l 2.49,1 c 0.52,-0.39 1.06,-0.73 1.69,-0.98 l 0.37,-2.65 c 0.04,-0.24 0.25,-0.42 0.5,-0.42 h 4.0000004 c 0.25,0 0.46,0.18 0.5,0.42 l 0.37,2.65 c 0.63,0.25 1.17,0.59 1.69,0.98 l 2.49,-1 c 0.22,-0.09 0.49,0 0.61,0.22 l 2,3.46 c 0.13,0.22 0.07,0.49 -0.12,0.64 l -2.11,1.63 0.07,1 -0.07,1 2.11,1.63 c 0.19,0.15 0.25,0.42 0.12,0.64 l -2,3.46 c -0.12,0.22 -0.39,0.31 -0.61,0.22 l -2.49,-1 c -0.52,0.39 -1.06,0.73 -1.69,0.98 l -0.37,2.65 c -0.04,0.24 -0.25,0.42 -0.5,0.42 H 7.7293316 m 1.25,-18 -0.37,2.61 c -1.2,0.25 -2.26,0.89 -3.03,1.78 l -2.41,-1.04 -0.75,1.3 2.11,1.55 c -0.4,1.17 -0.4,2.44 0,3.6 l -2.12,1.56 0.75,1.3 2.43,-1.04 c 0.77,0.88 1.82,1.52 3.01,1.76 l 0.37,2.62 h 1.5200004 l 0.37,-2.61 c 1.19,-0.25 2.24,-0.89 3.01,-1.77 l 2.43,1.04 0.75,-1.3 -2.12,-1.55 c 0.4,-1.17 0.4,-2.44 0,-3.61 l 2.11,-1.55 -0.75,-1.3 -2.41,1.04 c -0.77,-0.89 -1.83,-1.53 -3.03,-1.77 l -0.37,-2.62 z"
     id="path1"
     style="fill:#ebdbb2;fill-opacity:1" />
</svg>
