<?xml version="1.0" encoding="UTF-8" standalone="no"?>
<svg
   viewBox="0 0 18 18"
   version="1.1"
   id="svg1"
   width="18"
   height="18"
   xmlns="http://www.w3.org/2000/svg"
   xmlns:svg="http://www.w3.org/2000/svg">
  <defs
     id="defs1" />
  <path
     d="M 2.12,2 2.93,1 h 12 l 0.94,1 M 9,14.5 3.5,9 H 7 V 7 h 4 v 2 h 3.5 L 9,14.5 M 17.54,2.23 16.15,0.55 C 15.88,0.21 15.47,0 15,0 H 3 C 2.53,0 2.12,0.21 1.84,0.55 L 0.46,2.23 C 0.17,2.57 0,3 0,3.5 V 16 a 2,2 0 0 0 2,2 h 14 a 2,2 0 0 0 2,-2 V 3.5 C 18,3 17.83,2.57 17.54,2.23 Z"
     id="path1"
     style="mix-blend-mode:color;fill:#ebdbb2;fill-opacity:1" />
</svg>
